<?xml version="1.0" encoding="UTF-8"?>
<svg id="Layer_1" data-name="Layer 1" xmlns="http://www.w3.org/2000/svg" viewBox="0 0 986.66 541.53">
  <defs>
    <style>
      .cls-1 {
        fill: #f59696;
      }

      .cls-2 {
        fill: #f94145;
      }

      .cls-3 {
        fill: #f6f7f9;
      }

      .cls-4 {
        fill: #f7f5ff;
      }

      .cls-5 {
        fill: #f7ff87;
      }

      .cls-6 {
        fill: #f95053;
      }

      .cls-7 {
        fill: #00e668;
      }

      .cls-8 {
        fill: #00e682;
      }

      .cls-9 {
        fill: #00d176;
      }

      .cls-10 {
        fill: #00bd6b;
      }

      .cls-11 {
        fill: #f08d8d;
      }

      .cls-12 {
        fill: #e3eb7c;
      }

      .cls-13 {
        fill: #eb3d41;
      }

      .cls-14 {
        fill: #fff;
      }

      .cls-15 {
        fill: #ffc2c2;
      }

      .cls-16 {
        fill: #ffb3b3;
      }

      .cls-17 {
        fill: #ba3134;
      }

      .cls-18 {
        fill: #a62c2e;
      }

      .cls-19 {
        fill: #434352;
      }

      .cls-20 {
        fill: #43ffad;
      }

      .cls-21 {
        fill: #3b3b3b;
      }

      .cls-22 {
        fill: #3b3b22;
      }

      .cls-23 {
        fill: #262616;
      }

      .cls-24 {
        fill: #5a4f87;
      }

      .cls-25 {
        fill: #4d4373;
      }

      .cls-26 {
        opacity: .3;
      }

      .cls-27 {
        fill: #e2dbff;
      }

      .cls-27, .cls-28 {
        opacity: .44;
      }

      .cls-28 {
        fill: #cec2ff;
      }
    </style>
  </defs>
  <rect class="cls-3" width="986.66" height="541.53"/>
  <g>
    <g>
      <path class="cls-4" d="m859.26,450.04c-.27.04-.54.09-.81.14-.21.03-.41.07-.61.1-.96.16-1.9.3-2.84.43-1.89.28-3.75.52-5.59.73-.92.11-1.84.21-2.75.3-1.18.12-2.37.26-3.58.41-1.82.23-3.66.5-5.54.8-1.15.18-2.33.38-3.52.59-.19.03-.39.07-.58.1-.54.09-1.09.19-1.63.29-.83.16-1.66.33-2.5.49-.65.14-1.29.27-1.95.4-.56.12-1.12.23-1.68.35h0c-.49.11-1,.22-1.5.33-.51.1-1.01.22-1.52.33-.67.16-1.36.3-2.04.47-.02,0-.03,0-.04,0-.67.14-1.33.3-2.01.47-1.74.4-3.49.84-5.27,1.28-.47.12-.94.24-1.4.35-7.97,2.05-16.29,4.42-24.9,7.02-.39.11-.78.23-1.18.35l-.08.03c-1.66.49-3.33,1.01-5.01,1.53-.74.22-1.48.46-2.22.69-1.85.57-3.71,1.14-5.59,1.73-4.2,1.32-8.47,2.67-12.78,4.05-2.07.66-4.14,1.33-6.24,1.99l-2.38.78c-.79.26-1.59.52-2.4.77-2.17.7-4.36,1.4-6.56,2.09-6.59,2.11-13.25,4.22-19.96,6.31-.08.03-.16.05-.24.09-.03,0-.06,0-.09.02-.48.16-.97.3-1.44.45-.16.05-.33.1-.48.16-.32.09-.64.2-.96.3-.19.05-.38.11-.57.17-.19.05-.39.1-.58.16t-.02,0c-1.8.55-3.62,1.11-5.44,1.65-1.04.32-2.1.64-3.14.95-3.9,1.16-7.82,2.32-11.73,3.43h0c-6.82,1.95-13.66,3.82-20.49,5.56-11.72,2.96-23.39,5.56-34.89,7.55-.92.16-1.84.32-2.77.47-2.77.47-5.53.89-8.28,1.28-12.44,1.74-24.62,2.67-36.32,2.52-2.17-.03-4.32-.09-6.45-.2-2.11-.11-4.21-.26-6.3-.43-8.61-.76-17.45-1.48-26.47-2.17-1.6-.13-3.22-.25-4.83-.37-2.15-.16-4.29-.31-6.45-.47-4.19-.3-8.42-.59-12.68-.89h0c-5.26-.36-10.59-.71-15.98-1.04-2.89-.18-5.78-.36-8.71-.54-1.46-.08-2.91-.17-4.38-.26-1.03-.06-2.03-.12-3.06-.16-3.37-.22-6.77-.41-10.2-.59-.22-.02-.44-.03-.66-.03-8.69-.48-17.53-.95-26.51-1.39-15.24-.77-30.87-1.47-46.89-2.14-3.45-.14-6.91-.28-10.39-.42-4.84-.2-9.72-.39-14.63-.58-3.86-.16-7.75-.29-11.66-.44-3.27-.12-6.57-.24-9.88-.36-7.08-.26-14.24-.51-21.46-.75-3.68-.13-7.38-.25-11.09-.38-12.16-.4-24.5-.79-37-1.17-3.75-.12-7.5-.23-11.28-.34h0c-4.26-.12-8.52-.25-12.82-.38-5.95-.18-11.77-.49-17.47-.94-.49-.03-.99-.07-1.48-.11-.09,0-.18,0-.27-.02-.4-.04-.8-.08-1.21-.11-.65-.06-1.31-.11-1.96-.17l-1.94-.18c-3.5-.34-6.94-.74-10.34-1.18-5.94-.78-11.72-1.7-17.34-2.77-4.02-.77-7.95-1.61-11.81-2.52h0c-1.09-.26-2.16-.52-3.23-.78-1.08-.27-2.15-.54-3.21-.83-1.44-.38-2.86-.77-4.27-1.16h0c-1.41-.41-2.81-.81-4.2-1.23-1.73-.52-3.44-1.05-5.13-1.6-3.39-1.09-6.69-2.27-9.92-3.49-1.62-.61-3.21-1.24-4.79-1.89-6.44-2.63-12.56-5.49-18.37-8.59-.89-.47-1.77-.95-2.64-1.43-29.34-16.27-50.23-38.52-61.96-64.73h0c-2.73-6.1-4.96-12.39-6.69-18.88-.22-.85-.45-1.71-.65-2.57-.96-3.92-1.73-7.9-2.31-11.96h0c-.44-3-.78-6.01-1.01-9.06-.27-3.57-.17-7.03.26-10.43.7-5.5,2.22-10.78,4.39-15.92.3-.73.63-1.46.96-2.19.14-.31.28-.62.45-.94,2.02-4.31,4.48-8.5,7.19-12.65,1.14-1.72,2.31-3.44,3.54-5.14.8-1.11,1.6-2.21,2.44-3.33h0c.26-.37.53-.73.8-1.09,2.41-3.17,4.9-6.32,7.45-9.45,5.05-6.25,10.25-12.47,15.08-18.76,1.12-1.47,2.22-2.93,3.28-4.42,5.67-7.77,10.56-15.72,13.77-24.07.04-.1.08-.22.12-.33,3.68-9.75,5.04-20.05,2.55-31.29-.34-1.54-.61-3.07-.83-4.58-1.81-13.11,1.49-24.33,8.92-34.08h0c2.09-2.75,4.5-5.38,7.22-7.88,1.3-1.2,2.65-2.37,4.08-3.51.12-.09.24-.19.36-.28,3.1-2.46,6.49-4.8,10.18-7.03h0s0,0,0,0c1.34-.82,2.72-1.63,4.14-2.41,1.09-.61,2.19-1.21,3.3-1.79,5.98-3.14,12.51-6.07,19.56-8.81,23.17-9.04,51.78-16.18,83.15-22.51h0c1.24-.25,2.48-.49,3.73-.74h0c2.85-.57,5.73-1.13,8.62-1.69,1.09-.2,2.15-.41,3.19-.65h0c.38-.07.76-.16,1.13-.23,3.98-.87,7.66-1.84,11.05-2.9,4.91-1.53,9.24-3.26,13.06-5.14,5.22-2.57,9.5-5.45,13.07-8.57,3.43-3.02,6.2-6.25,8.49-9.67,3.09-4.58,5.33-9.48,7.23-14.56,2-5.39,3.6-10.98,5.39-16.64.47-1.47.94-2.94,1.43-4.42h0c.4-1.19.81-2.37,1.26-3.56,6.64-18.13,17.9-36.19,52.5-49.3,53.07-20.11,114.53,1.22,166.78,33.71,2.15,1.34,4.3,2.7,6.41,4.07,16.18,10.49,31.36,21.95,45.03,33.45,3.22,2.71,6.37,5.43,9.42,8.13.55.49,1.09.98,1.64,1.46,2.02,1.83,4.02,3.64,5.95,5.44.13.12.25.24.38.35,1.04.97,2.07,1.94,3.09,2.9h0c.9.86,1.78,1.71,2.66,2.56.47.46.95.91,1.41,1.37,3.28,3.19,6.41,6.34,9.37,9.42,7.7,8,16.24,14.23,25.39,19.07,1.25.66,2.52,1.3,3.79,1.91.59.29,1.16.56,1.76.83,30.73,14.12,67.41,14.27,101.35,14.6,3.31.03,6.61.06,9.87.11.28,0,.54,0,.81.02.32,0,.63,0,.93.02h0c3.46.05,6.87.13,10.23.25,3.57.11,7.06.28,10.49.5,2,.13,3.94.27,5.87.44,9.24.8,17.92,2.14,25.78,4.39,2.27.65,4.49,1.4,6.63,2.21,14.59,5.6,22.2,16.92,26.95,31.77,2.1,6.61,3.63,13.91,4.96,21.7h0c.14.84.28,1.67.41,2.52,1.38,8.45,2.56,17.45,3.97,26.75,0,0,0,0,0,0,.05.33.09.65.15.97h0c.38,2.46.78,4.9,1.21,7.39h0v.03c.24,1.46.51,2.94.78,4.43h0c1.53,8.5,3.45,17.16,6.01,25.8,1.65,5.56,3.58,11.11,5.87,16.61,2.37,5.7,5.12,11.33,8.36,16.86.03.07.07.13.1.19.83,1.42,1.69,2.81,2.57,4.2,3.13,4.89,6.63,9.68,10.6,14.32.7.81,1.4,1.62,2.12,2.42.74.84,1.51,1.65,2.28,2.47,1.34,1.43,2.61,2.85,3.81,4.25.27.31.52.61.77.92,1.95,2.35,3.69,4.67,5.24,6.96,36.84,54.63-37.15,94.26-97.67,104.44Z"/>
      <path class="cls-27" d="m821.05,450.7c-7.12.73-14.87,2.14-23.11,4.04-.59.13-1.19.27-1.78.41-12.52,2.96-26.15,7.02-40.47,11.51-14.31,4.49-29.31,9.43-44.59,14.17-.95.3-1.9.59-2.84.89-6.31,1.94-12.66,3.84-19.03,5.66h0c-35.33,10.09-71.1,17.59-102.38,14.83-14.27-1.26-29.2-2.4-44.72-3.45h0c-4.67-.32-9.38-.63-14.16-.93-2.56-.16-5.14-.32-7.73-.48-1.29-.08-2.58-.15-3.88-.23-.9-.06-1.8-.1-2.7-.15-3.18-.19-6.4-.37-9.64-.56-56.79-3.15-120.44-5.36-189.38-7.4-104.79-3.1-165.28-53.54-170.4-120.74-3.56-46.78,65.91-75.82,55.22-124.1-10.68-48.28,53.44-68.87,135.14-84.51,81.7-15.65,26.82-73.12,104.43-102.53,47.05-17.82,101.53,1.09,147.85,29.89,25.33,15.75,48.22,34.46,66.12,51.74,3.37,3.25,6.56,6.45,9.56,9.56,48.09,50.05,133.58,21.54,179.89,39.32,46.31,17.78,13.36,100.7,67.69,158.19,54.33,57.5-30.28,98.84-89.06,104.86Z"/>
      <path class="cls-28" d="m834.95,448.7s-.02,0-.03,0c-.82.36-1.63.72-2.46,1.07-.91.4-1.84.78-2.77,1.15-.16.07-.33.14-.49.2-.4.17-.82.34-1.23.49-1.39.55-2.78,1.08-4.19,1.59-.67.24-1.34.48-2.02.72-2.6.9-5.23,1.75-7.87,2.53-.03.02-.05.03-.08.03-7.94,2.36-15.98,4.17-23.7,5.37-.83.13-1.65.25-2.46.37-1.9.26-3.8.49-5.66.68-.28.03-.58.06-.86.09-.64.07-1.28.15-1.93.22-4.58.58-9.42,1.43-14.48,2.52-.4.09-.8.17-1.2.26-.86.19-1.73.39-2.62.59-.02,0-.03,0-.04,0-.54.12-1.09.24-1.63.37-1.54.36-3.08.74-4.66,1.15-9.31,2.36-19.22,5.3-29.56,8.52-.92.28-1.84.57-2.77.86-5.48,1.72-11.07,3.51-16.75,5.32-3.71,1.19-7.44,2.4-11.21,3.59-4.24,1.35-8.51,2.71-12.82,4.04-.87.27-1.73.53-2.59.81-5.77,1.77-11.57,3.52-17.4,5.17h0c-24.67,7.04-49.57,12.71-72.71,13.87-7.15.35-14.14.28-20.89-.31-13.05-1.15-26.69-2.2-40.88-3.15h0c-4.27-.29-8.58-.58-12.95-.85-2.34-.14-4.69-.29-7.07-.43-1.19-.07-2.36-.14-3.55-.22-.82-.04-1.65-.09-2.47-.13-2.91-.18-5.85-.34-8.81-.52-51.92-2.88-110.12-4.89-173.14-6.76-10.78-.32-21.02-1.19-30.76-2.57h0c-8.38-1.18-16.36-2.73-23.95-4.64-4.15-1.04-8.19-2.19-12.1-3.45-1.18-.37-2.35-.76-3.52-1.15-1.84-.63-3.66-1.28-5.45-1.96-13.04-4.92-24.57-11.04-34.54-18.17-4.67-3.34-9-6.9-12.98-10.68t-.02-.02c-.34-.33-.68-.65-1.02-.97-3.21-3.12-6.19-6.38-8.92-9.75-3.91-4.82-7.32-9.9-10.24-15.21-5.27-9.57-8.93-19.89-10.91-30.78-.34-1.91-.64-3.85-.88-5.81-.08-.6-.15-1.21-.22-1.84-.02-.14-.03-.28-.04-.43-.1-.98-.19-1.96-.27-2.96-.36-4.78.1-9.37,1.22-13.79.4-1.6.88-3.19,1.45-4.76.05-.14.09-.28.16-.43,1.1-3.02,2.48-5.96,4.08-8.86,1.16-2.12,2.44-4.2,3.8-6.27,1.11-1.71,2.28-3.39,3.51-5.07.55-.76,1.11-1.51,1.68-2.27.53-.72,1.08-1.43,1.63-2.15l1.96-2.51c.05-.07.11-.14.16-.21,5.74-7.24,11.89-14.37,17.25-21.7.19-.26.38-.52.57-.78,1.04-1.45,2.05-2.91,3.03-4.38,1.45-2.19,2.8-4.4,4.03-6.64,5.68-10.34,8.69-21.32,5.95-33.67-2.94-13.28.31-24.27,8.35-33.54,18.63-21.53,62.99-33.74,115.21-43.73,74.7-14.31,24.53-66.86,95.49-93.75,12.22-4.63,25-6.55,37.99-6.32,9.26.16,18.65,1.42,28.01,3.56,7.07,1.63,14.15,3.75,21.17,6.31,6.62,2.39,13.2,5.16,19.67,8.23,6.67,3.17,13.24,6.63,19.67,10.35,2.91,1.69,5.81,3.43,8.66,5.2,5.61,3.48,11.09,7.13,16.4,10.88,1.69,1.19,3.37,2.39,5.01,3.59,3.81,2.79,7.54,5.63,11.15,8.48,10.25,8.11,19.65,16.39,27.89,24.35,3.09,2.96,6.01,5.89,8.75,8.75,38.35,39.9,102.7,25.18,146.62,31.54,6.44.94,12.43,2.33,17.84,4.4,4.67,1.79,8.45,4.31,11.56,7.44,7.18,7.21,10.75,17.69,13.23,30.07.78,3.89,1.45,7.97,2.09,12.19.57,3.72,1.11,7.55,1.68,11.47.6,4.19,1.25,8.48,1.99,12.82.07.41.15.84.22,1.25,1.47,8.46,3.34,17.13,6.08,25.76.4,1.25.81,2.49,1.24,3.74.94,2.69,1.96,5.36,3.1,8.02,1.14,2.68,2.39,5.34,3.76,7.98.42.83.87,1.65,1.33,2.48,2.02,3.67,4.28,7.27,6.85,10.81.36.52.73,1.03,1.12,1.53,1.13,1.5,2.31,2.99,3.55,4.46,1.05,1.26,2.15,2.5,3.29,3.73.26.29.53.59.8.87.55.59,1.09,1.18,1.62,1.77.32.35.65.72.95,1.07,1.34,1.55,2.58,3.08,3.7,4.61,2.09,2.82,3.8,5.58,5.19,8.3.12.24.25.49.37.73.56,1.15,1.06,2.3,1.51,3.44,10.48,26.83-12.02,48.42-41.81,61.76Z"/>
      <g>
        <g>
          <path class="cls-10" d="m315.13,469.5c.75,1.29,1.14,2.02,1.14,2.02,0,0-.74.52-2.13,1.4-34.29,21.62-82.67,27.1-111.07,1.27-14.27-12.98-23.93-28.88-35.64-44.29-11.13-14.64-26.95-23.31-42.8-32.18-20.03-11.21-30.41-30.5-33.76-53.48-2.39-16.34-1.43-34.59-12.48-47.22-7.54-8.62-11.81-18.92-10.48-31.12.79-7.24,3.8-14.44.94-21.24-3.53-8.38-12.34-44.82.3-47.32,11.1-2.2,14.42,32.81,15.03,42.21.48,7.47,6.48,10.79,10.85,15.63,7.1,7.87,10.03,17.09,10.63,28.21.89,16.48,15.51,24.83,27.59,32.64,15.96,10.32,28.71,22.45,35.62,40.56,5.68,14.88,13.84,29.23,29.37,35.61,14.77,6.06,32.32,7.57,47.93,11.19,32.32,7.48,53.43,39.31,68.97,66.1Z"/>
          <path class="cls-20" d="m188.24,411.94c15.67,11.78,32.13,22.05,49.7,31.01,18.05,8.75,36.81,16.1,56.14,21.47,6.87,1.91,13.96,3.53,21.05,5.08.75,1.3,1.14,2.02,1.14,2.02,0,0-.74.51-2.13,1.4-7.2-1.41-14.4-2.91-21.4-4.71-19.74-5.07-38.79-12.33-57.2-20.95-17.87-9.01-34.61-19.35-50.57-31.21-15.49-12.25-29.67-25.6-42.83-40.31-6.4-7.44-12.52-15.15-18.18-23.21-3.41-4.83-5.06-7.28-8.24-12.29-3.16-5.01-4.68-7.56-7.61-12.74-19.52-35.65-31.93-73.84-37.25-115.38,7.24,40.69,20.62,78.23,40.67,113.16,2.99,5.06,4.55,7.54,7.77,12.43,3.2,4.9,4.86,7.3,8.29,12.02,5.68,7.88,11.81,15.41,18.22,22.67,13.04,14.45,27.09,27.55,42.42,39.55Z"/>
        </g>
        <g>
          <path class="cls-9" d="m254.95,493.8c-.65-.05-1.3-.1-1.95-.16-.65-.06-1.29-.13-1.94-.19-3.5-.34-6.94-.73-10.34-1.17-5.94-.78-11.72-1.7-17.34-2.77-4.02-.76-7.95-1.6-11.81-2.52-1.09-.25-2.16-.52-3.24-.78s-2.15-.54-3.21-.83c-1.44-.38-2.86-.77-4.27-1.16h0c-1.41-.41-2.81-.81-4.2-1.23-1.73-.52-3.44-1.05-5.13-1.6-3.39-1.09-6.69-2.27-9.92-3.49-1.62-.62-3.21-1.25-4.79-1.9-3.56-4.41-8.17-7.87-13.23-10.72-1.89-1.08-3.84-2.07-5.83-2.99-.67-.31-1.34-.62-2.01-.9-15.14-6.66-24.07-18.58-30.89-33.44-.71-1.53-1.41-3.09-2.13-4.67-3.03-6.55-6.48-13.19-11.99-17.27-2.95-2.19-6.51-3.64-10.9-3.98-2.09-.15-4.08-.4-5.99-.77h0c-5.63-1.07-10.46-3.09-14.56-6.52-1.08-.89-2.08-1.86-3.04-2.94-3.68-4.1-5.75-9.68-12.34-10.24-8.31-.72-39.08-4.31-35.46-14.5,3.21-9,22.78-5.77,34.61-2.3h0c3.39.99,6.14,2.01,7.69,2.77,4.04,1.96,8.69,1.17,13.44.33,1.89-.34,3.8-.68,5.68-.85,2.24-.22,4.39-.22,6.43-.02.3.03.6.07.91.1h0c7.63.96,13.82,4.62,18.86,10.05h0c6.38,6.88,15.77,8.94,25.5,10.27h0c1.96.26,3.93.49,5.89.73l1.29.16c1.51.19,3.02.38,4.52.6.5.08,1,.15,1.49.23h.02c.53.07,1.05.16,1.59.25,2,.34,3.95.75,5.86,1.23.41.09.83.2,1.24.32.2.05.39.1.58.16h0c11.68,3.21,21.46,9.04,28.31,18.02t0,0c2.28,2.99,4.23,6.32,5.82,10.03h0c.31.72.6,1.43.89,2.17.78,2.09,1.56,4.18,2.34,6.25,1.09,2.84,2.22,5.65,3.4,8.43h0c.5,1.15,1,2.27,1.53,3.39,1.49,3.24,3.13,6.38,4.95,9.37.13.22.26.42.39.63.83,1.34,1.71,2.63,2.64,3.89t0,.02c2.06,2.83,4.39,5.51,7.05,7.94,2.92,2.67,5.88,5.24,8.82,7.78h0c1.34,1.17,2.67,2.33,4,3.48,1.53,1.32,3.03,2.65,4.52,3.99,3.43,3.08,6.76,6.25,9.87,9.66,1.56,1.71,3.07,3.47,4.52,5.31.61.77,1.21,1.57,1.8,2.37Z"/>
          <path class="cls-20" d="m211.56,486.98h0c-1.09-.24-2.16-.51-3.24-.78s-2.15-.54-3.21-.83c-.92-1.77-1.88-3.53-2.86-5.29-3.84-6.49-7.9-12.75-12.23-18.79-.04-.05-.08-.11-.13-.16-1.04-1.45-2.09-2.89-3.16-4.31-4.24-5.65-8.72-11.12-13.46-16.41-5.52-6.01-11.33-11.78-17.53-17.13-3.7-3.23-5.59-4.81-9.5-7.82-3.87-3.05-5.86-4.52-9.93-7.35-7.98-5.38-16.22-10.27-24.75-14.67-2.46-1.29-4.95-2.52-7.46-3.72-5.54-2.64-11.2-5.08-16.97-7.34-6.64-2.6-13.44-4.95-20.4-7.05-8.24-2.5-16.71-4.64-25.38-6.45,8.45,1.3,16.71,2.94,24.74,4.95,6.95,1.72,13.74,3.71,20.39,5.97,5.32,1.81,10.56,3.77,15.67,5.93,3.36,1.41,6.69,2.9,9.98,4.47,1.46.68,2.9,1.4,4.35,2.11,0,0,0,0,.02,0,7.65,3.82,15.1,8.03,22.33,12.67,4.19,2.77,6.23,4.2,10.24,7.2,4,3.01,5.94,4.56,9.74,7.76,2.01,1.69,3.98,3.42,5.91,5.19,4.19,3.82,8.21,7.82,12.1,11.93,3.27,3.6,6.43,7.32,9.46,11.08.16.2.32.4.48.59.03.03.04.06.07.09,1.67,2.09,3.32,4.22,4.92,6.37,5.18,6.93,10.01,14.14,14.51,21.66,0,0,0,0,0,0,.04.09.09.18.15.26,1.8,3.25,3.52,6.51,5.15,9.84h0Z"/>
        </g>
        <g>
          <path class="cls-8" d="m299.49,495.71c-3.75-.12-7.5-.23-11.28-.34h0c-4.26-.12-8.52-.25-12.82-.38-5.95-.18-11.77-.49-17.47-.94-.49-.03-.99-.07-1.48-.11-.49-.04-.99-.09-1.48-.14-.65-.05-1.3-.1-1.95-.16-.65-.06-1.29-.13-1.94-.19-3.5-.34-6.94-.73-10.34-1.17-5.94-.78-11.72-1.7-17.34-2.77-4.02-.76-7.95-1.6-11.81-2.52-1.09-.25-2.16-.52-3.24-.78s-2.15-.54-3.21-.83c-1.44-.38-2.86-.77-4.27-1.16h0c-1.41-.41-2.81-.81-4.2-1.23-2.66-7.21-4.79-14.49-6.74-21.85-.13-.49-.26-.98-.38-1.46v-.02c-.3-1.15-.6-2.29-.89-3.45-.64-2.47-1.26-4.95-1.88-7.44-.02-.08-.04-.16-.06-.24-.32-1.32-.65-2.64-.97-3.96-.09-.33-.16-.66-.25-1-1.03-4.14-2.07-8.28-3.2-12.46-.06-.21-.11-.42-.17-.64-.5-1.81-1.04-3.58-1.64-5.33h0c-2.46-7.33-5.77-14.21-9.55-20.82,0,0,0,0,0,0h0s0,0,0-.02h0s0-.02,0-.02c-2.24-3.91-4.67-7.74-7.19-11.5-.48-.72-.97-1.44-1.46-2.15-.89-1.31-1.78-2.59-2.7-3.89,0,0,0,0,0,0-2.38-3.42-4.83-6.82-7.26-10.21-1.27-1.77-2.44-3.55-3.55-5.34-1.71-2.82-3.24-5.69-4.57-8.61-4.98-10.87-7.35-22.34-7.57-34.09-.04-2-.02-4.01.06-6.01.05-1.33.13-2.64.24-3.96h0c.34-4.32.95-8.63,1.8-12.94,2.52-12.74,7.03-25.61,7.07-38.64.02-5.08-.63-10.18-2.37-15.32-.16-.5-.33-1-.48-1.5-3.77-11.99-3.97-24.01,1.4-35.2.1-.22.21-.44.32-.66,3.33-6.62,8.44-12.27,8.1-20.31-.11-2.8.13-7.91.82-13.77h0c1.81-15.64,6.74-36.65,16.22-33.89,4.39,1.27,5.75,7.46,5.61,15.17h0c-.22,12.49-4.38,28.95-6.07,35-2.18,7.8,2.42,14.16,4.92,21.23,3.47,9.87,3.64,19.2,1.49,28.93-.36,1.62-.78,3.25-1.26,4.89-3.54,12.22,1.12,23.76,7.32,34.44,1.26,2.19,2.59,4.34,3.94,6.46.22.34.44.69.65,1.03,1.04,1.65,2.1,3.27,3.12,4.88.24.38.48.76.72,1.14,4,6.37,7.54,12.77,10.45,19.33,1.57,3.51,2.96,7.07,4.14,10.68,2.53,7.79,4.14,15.85,4.54,24.39h0c.06,1.1.09,2.21.11,3.31.16,13.99,1.89,28.4,8.72,40.82h0c1.89,3.48,4.19,6.78,6.95,9.88,4.38,4.91,9.31,9.38,14.48,13.65,5.18,4.27,10.58,8.32,15.89,12.37,1.87,1.41,3.72,2.83,5.55,4.27,2.14,1.66,4.24,3.35,6.29,5.06,6.23,5.2,11.53,11.3,16.07,18.03h0c1.17,1.76,2.29,3.52,3.37,5.35v.02c2.02,3.43,3.88,6.99,5.57,10.65.59,1.28,1.16,2.56,1.71,3.85.26.57.49,1.13.72,1.7v.02c.72,1.71,1.4,3.45,2.04,5.2.19.49.37.98.55,1.48.75,2.06,1.46,4.14,2.13,6.22Z"/>
          <path class="cls-20" d="m257.91,494.05c-.49-.03-.99-.07-1.48-.11-.49-.04-.99-.09-1.48-.14-.65-.05-1.3-.1-1.95-.16-.65-.06-1.29-.13-1.94-.19-.59-.68-1.18-1.36-1.77-2.05h0c-2.06-2.4-4.09-4.81-6.1-7.24-.55-.66-1.09-1.33-1.64-1.99-1.65-2.12-3.27-4.26-4.87-6.4-.82-1.09-1.64-2.19-2.45-3.29-5.89-8.02-11.5-16.22-16.84-24.6-3.46-5.42-6.79-10.92-10.02-16.5h0c-1.17-2.03-2.34-4.06-3.47-6.11-.6-1.14-1.21-2.28-1.8-3.45h0c-6.58-12.79-12.5-25.77-17.82-39.05h0c-2.6-6.51-5.05-13.05-7.37-19.71-1.05-3.2-2.07-6.4-3.04-9.62-2.32-7.58-4.43-15.23-6.25-22.95-1.16-4.86-1.86-7.94-2.66-11.89-.28-1.4-.58-2.9-.91-4.64-1.28-6.65-1.84-9.99-2.82-16.69-1.72-12.77-2.84-25.45-3.36-38.09-1.23-30.4,1.06-60.45,6.95-90.42.43-2.24.89-4.48,1.37-6.72-.35,2.15-.69,4.29-1.01,6.44-4.46,29.47-5.85,58.91-4.08,88.55.77,13.2,2.17,26.44,4.2,39.72,1.1,6.62,1.71,9.9,3.08,16.45.06.3.12.6.18.89,1.24,5.97,2.01,9.23,3.56,15.41,1.57,6.33,3.33,12.63,5.25,18.88,1.34,4.41,2.77,8.8,4.27,13.17,3.33,9.41,6.92,18.65,10.83,27.75h0c4.86,11.35,10.19,22.48,16.03,33.47.95,1.71,1.9,3.4,2.87,5.09h0c1.76,3.09,3.55,6.15,5.37,9.19h0c1.92,3.21,3.88,6.37,5.88,9.5,6.96,10.93,14.39,21.54,22.33,31.89.15.19.29.39.44.58,2.22,2.78,4.47,5.53,6.76,8.26,1.13,1.37,2.28,2.73,3.45,4.09h0c.77.9,1.53,1.8,2.31,2.68Z"/>
        </g>
      </g>
      <g>
        <g>
          <path class="cls-10" d="m915.22,276.39c-1.41,11.21.34,23.37.47,34.87.09,8.84-.82,17.32-2.91,25.24-.82,3.09-1.81,6.09-3,9-3.08,7.6-7.46,14.54-13.29,20.62t-.02,0h0c-.18.2-.36.39-.55.58-2.2,2.24-4.62,4.37-7.23,6.35-4.48,3.41-8.95,6.8-13.28,10.31-.05.04-.11.09-.16.14-9.04,7.34-17.41,15.25-23.81,25.05-1.03,1.59-2.02,3.22-2.94,4.9-6.42,11.76-11.89,23.62-18.53,34.84h0v.02c-.27.46-.54.9-.82,1.36-.39.65-.78,1.3-1.19,1.95-.74,1.2-1.5,2.4-2.28,3.58h0c-.49.11-1,.22-1.5.33-.51.1-1.01.22-1.52.33-.67.16-1.36.3-2.04.47-.02,0-.03,0-.04,0-.67.14-1.33.3-2.01.47-1.74.4-3.49.84-5.27,1.28-.47.12-.94.24-1.4.35-7.97,2.05-16.29,4.42-24.9,7.02-.39.11-.78.23-1.18.35l-.08.03c-1.66.49-3.33,1.01-5.01,1.53-.74.22-1.48.46-2.22.69-1.85.57-3.71,1.14-5.59,1.73-4.2,1.32-8.47,2.67-12.78,4.05-2.07.66-4.14,1.33-6.24,1.99l-2.38.78c-.8.26-1.59.51-2.4.76-2.18.7-4.37,1.4-6.56,2.1-6.59,2.11-13.25,4.22-19.96,6.31-.08.03-.16.05-.24.09-.03,0-.06.02-.09.03-.48.15-.97.29-1.44.44-.16.05-.33.1-.48.16-.32.09-.64.19-.96.29-.19.06-.38.12-.57.18s-.39.11-.58.17h-.02c-4.33-1.22-8.6-2.65-12.76-4.29-.12-.04-.24-.09-.35-.14-1.92-.75-3.81-1.55-5.68-2.4-1.03-.47-1.75-.81-2.15-1-.06-.03-.11-.07-.16-.08,0,0-.03-.02-.03-.02-.02,0-.03-.02-.03-.02,0,0-.02,0-.03-.02s-.03,0-.03-.02-.02,0-.03,0c0,0,0,0,0,0,0-.02-.02-.02-.03-.03h0s0,0,0-.02h0s0-.04.02-.06c0-.03.03-.09.05-.16.03-.09.08-.22.14-.36.06-.17.14-.38.23-.62,0-.02,0-.03.02-.05.03-.08.06-.16.09-.23.05-.13.1-.25.16-.39.05-.13.1-.28.16-.42h0c.12-.33.26-.65.39-.97,3.53-8.97,7.5-18.43,12.17-27.64.78-1.55,1.59-3.08,2.44-4.62.03-.06.06-.12.09-.18.7-1.31,1.43-2.62,2.18-3.91.33-.59.66-1.17,1.01-1.75,2.22-3.75,4.58-7.39,7.1-10.9,1.89-2.61,3.86-5.14,5.94-7.57,5.13-5.99,10.87-11.33,17.34-15.65,1.39-.92,2.8-1.8,4.26-2.62,3-1.71,6.13-3.21,9.44-4.47,0,0,.03,0,.03-.02,9.24-3.5,19.26-6.36,28.91-9.78,7.11-2.52,14.01-5.35,20.25-8.98,2.03-1.19,3.9-2.49,5.63-3.93,2.95-2.4,5.47-5.15,7.63-8.14,1.96-2.66,3.64-5.53,5.08-8.53,3.25-6.71,5.38-14.1,6.96-21.54.92-4.3,2.16-8.35,3.7-12.19,3.27-8.19,7.86-15.42,13.45-22.08,3.21-3.8,6.73-7.42,10.53-10.91h0c1.14-1.06,2.28-2.09,3.46-3.11,2.54-2.21,5.2-4.46,7.82-6.83,1.27-1.15,2.52-2.33,3.72-3.53,7.58-7.58,13.61-16.45,12.37-28.35-1.22-11.93.34-22.17,6.59-31.57,1.97-2.97,4.47-5.58,6.34-8.5h0c1.77-2.77,2.96-5.81,2.59-9.7-.92-10.11-3.27-47.87,8.93-47.11,13.88.85,10.61,40.93,8.25,50.36-1.9,7.65,2.52,14.88,4.57,22.48,3.46,12.8.65,24.39-5.94,34.65-3.39,5.28-5.08,11.11-5.85,17.21Z"/>
          <path class="cls-20" d="m823.32,397.3c-14.72,14.79-30.53,28.08-47.73,40.15-17.76,11.9-36.51,22.42-56.2,30.91-7,3.02-14.28,5.76-21.57,8.42-.58,1.49-.88,2.32-.88,2.32,0,0,.87.44,2.5,1.18,7.44-2.53,14.85-5.16,22-8.08,20.18-8.23,39.24-18.68,57.41-30.51,17.52-12.16,33.62-25.56,48.62-40.48,14.44-15.26,27.31-31.51,38.86-49.07,5.57-8.84,10.79-17.93,15.47-27.33,2.82-5.63,4.16-8.48,6.71-14.27,2.53-5.79,3.72-8.73,5.97-14.66,14.81-40.77,21.62-83.22,20.32-128.23-.89,44.37-8.84,86.28-24.34,126.35-2.34,5.81-3.58,8.69-6.19,14.35-2.59,5.67-3.96,8.47-6.81,13.99-4.73,9.2-9.99,18.11-15.6,26.76-11.47,17.25-24.24,33.22-38.55,48.2Z"/>
        </g>
        <g>
          <path class="cls-9" d="m956.93,345.61c-2.56.68-4.75,1.2-6.25,1.53-6.92,1.55-8.19,7.78-11.42,12.67-.84,1.29-1.75,2.46-2.75,3.57-5.09,5.68-11.99,8.87-20.68,10.71-4.5.95-7.97,2.92-10.71,5.57-.08.07-.16.15-.23.23-5.19,5.14-7.76,12.71-9.87,20.11-.51,1.78-.99,3.55-1.49,5.28-.23.83-.48,1.65-.73,2.46-4.8,15.72-12.3,28.78-26.56,37.58-.67.4-1.33.82-1.99,1.26-1.71,1.1-3.39,2.26-5,3.48-.47.08-.95.16-1.43.23-3.8.61-7.53,1.1-11.18,1.47-4.72.48-9.67,1.24-14.84,2.2-.83.16-1.66.32-2.5.48-.64.14-1.29.27-1.94.4-.56.11-1.13.23-1.69.35-.99.21-2.01.43-3.02.65-.67.16-1.36.3-2.04.47-.02,0-.03,0-.04,0-.67.14-1.33.3-2.01.47-1.74.4-3.49.84-5.27,1.28-.47.12-.94.24-1.4.35-7.97,2.05-16.3,4.41-24.9,7.02.39-.45.78-.9,1.17-1.35v-.02c2.72-3.13,5.43-6.28,8.09-9.55,2.43-2.96,4.45-6.14,6.18-9.46v-.02c.92-1.71,1.73-3.46,2.48-5.24,1.44-3.46,2.65-7.02,3.7-10.69.38-1.26.72-2.55,1.06-3.83h0c.8-3.12,1.52-6.28,2.21-9.46v-.02c.49-2.32.98-4.65,1.46-6.98.18-.83.36-1.64.57-2.43h0c1.07-4.19,2.58-8.01,4.51-11.52t0,0c3.56-6.49,8.51-11.87,14.56-16.23,3.77-2.72,7.99-5.05,12.57-7.01h0c.61-.28,1.24-.53,1.86-.78,1.95-.78,3.97-1.5,6.04-2.15.55-.17,1.1-.34,1.65-.5h.02c.51-.14,1.03-.3,1.56-.45,1.54-.44,3.12-.88,4.7-1.28,1.42-.37,2.83-.74,4.25-1.11,1.08-.29,2.16-.58,3.25-.88h0c7.88-2.18,15.45-4.8,21.09-9.72,1.62-1.42,3.09-3.01,4.36-4.86,0,0,0,0,0,0,4.45-6.49,10.45-11.29,18.41-13.4.32-.09.64-.17.96-.24,2.14-.51,4.43-.81,6.85-.9,7.13-.29,14.9,1.56,20.45-2.18.88-.59,2.19-1.34,3.8-2.17,1.16-.6,2.48-1.23,3.92-1.88h.02c12-5.4,32.31-11.63,37.25-2.51,4.62,8.57-16.68,15.7-29.09,18.99Z"/>
          <path class="cls-20" d="m972.56,330.42c-7.14,2.52-14.1,5.26-20.87,8.22-1.71.74-3.41,1.5-5.09,2.27-13.19,6.04-25.64,12.92-37.4,20.68-2.47,1.64-4.93,3.31-7.32,5.03-1.4.99-2.79,2.01-4.16,3.03-6.84,5.05-13.41,10.42-19.75,16.15-3.85,3.61-5.73,5.45-9.34,9.26-3.64,3.77-5.4,5.71-8.8,9.69-5.69,6.58-10.92,13.56-15.79,20.76-5.19,7.9-9.93,16.02-14.23,24.43-.03.06-.06.13-.1.19-.8,1.56-1.58,3.13-2.34,4.71-.56.11-1.13.23-1.69.35-.99.21-2.01.43-3.02.65-.67.16-1.36.3-2.04.47,3.19-6.81,6.66-13.43,10.4-19.9.02-.03.04-.06.06-.1,2.72-4.7,5.6-9.33,8.63-13.87,5.04-7.22,10.44-14.2,16.31-20.8,3.5-3.96,5.31-5.9,9.06-9.67,3.77-3.75,5.71-5.58,9.7-9.13,6.74-5.82,13.75-11.24,21.06-16.28.2-.15.41-.3.62-.44,0,0,0,0,.02-.02,1.4-.96,2.82-1.91,4.25-2.85,3.25-2.13,6.54-4.2,9.88-6.19,11.47-6.79,23.6-12.74,36.41-17.83,1.28-.52,2.59-1.02,3.89-1.51,7-2.69,14.23-5.12,21.64-7.3Z"/>
        </g>
        <g>
          <path class="cls-8" d="m859.75,345.22c-.37,1-.78,1.98-1.18,2.98-.87,2.08-1.83,4.14-2.89,6.2-.34.68-.69,1.35-1.03,2.03-1.67,3.29-3.35,6.58-5,9.89,0,0,0,0,0,0v.02c-.75,1.5-1.48,3-2.21,4.51-2.5,5.2-4.85,10.45-6.92,15.8h0s0,.02,0,.02v.02c-.63,1.61-1.23,3.25-1.79,4.89-2.1,6.04-3.81,12.23-4.91,18.64h0c-.33,1.96-.62,3.93-.83,5.93-.03.23-.06.47-.09.71-.52,4.6-.93,9.18-1.33,13.73-.16,1.92-.32,3.83-.49,5.74-.36,4-.72,8-1.1,11.97h0v.02c-.04.42-.09.84-.13,1.26-.02.12-.03.25-.04.37-.03.33-.07.66-.11.99-.11,1.18-.24,2.34-.38,3.52-.65.14-1.29.27-1.95.4-.56.11-1.12.23-1.69.36-.49.1-1,.21-1.5.32-.51.1-1.01.22-1.52.33-.67.16-1.36.3-2.04.47-.02,0-.03,0-.04,0-.67.14-1.33.3-2.01.47-1.74.4-3.49.84-5.27,1.28-.47.12-.94.24-1.4.35-7.97,2.05-16.29,4.42-24.9,7.02-.39.11-.78.23-1.18.35l-.08.03c-1.66.49-3.33,1.01-5.01,1.53-.74.22-1.48.46-2.22.69-1.85.57-3.71,1.14-5.59,1.73-4.2,1.32-8.47,2.67-12.78,4.05-2.07.66-4.14,1.33-6.24,1.99l-2.38.78c-.8.26-1.59.51-2.4.76-2.18.7-4.37,1.4-6.56,2.1-6.59,2.11-13.25,4.22-19.96,6.31-.08.03-.16.05-.24.09-.03,0-.06.02-.09.03h0c.35-1.39.73-2.74,1.12-4.08.5-1.74,1.03-3.46,1.6-5.15.02-.07.03-.13.06-.19.07-.22.14-.42.21-.63.25-.76.53-1.52.79-2.27.47-1.31.97-2.62,1.49-3.9v-.03c.83-2.09,1.73-4.14,2.68-6.17h0v-.02c.33-.67.65-1.34.99-2,2-4.02,4.27-7.88,6.82-11.55,1.59-2.27,3.27-4.46,5.07-6.57.4-.47.8-.93,1.22-1.39,3.52-3.91,7.24-7.76,11.03-11.61h0c5.09-5.19,10.28-10.39,15.16-15.8,4.69-5.17,9.08-10.54,12.83-16.27,2.43-3.7,4.33-7.55,5.76-11.52,5.2-14.21,4.62-29.81,2.45-44.73-.17-1.19-.33-2.36-.46-3.55h0c-.99-9.15-.64-17.97.76-26.62.51-3.21,1.18-6.38,1.97-9.54,2.05-8.24,4.98-16.35,8.53-24.52.18-.44.38-.87.56-1.31.03-.04.04-.09.06-.13.79-1.81,1.63-3.64,2.45-5.51,1.25-2.83,2.5-5.72,3.64-8.64,1.21-3.1,2.33-6.26,3.19-9.42,2.09-7.58,2.9-15.3.82-22.92-.49-1.8-1.15-3.6-1.98-5.39-.8-1.7-1.53-3.38-2.17-5.05-3.93-10.06-5.3-20.02-3.25-31.02.44-2.38,1.09-4.71,1.7-7.04,1.4-5.39,2.52-10.7-.03-16.28-1.59-3.47-4.53-10.31-7.23-17.97-5.11-14.51-9.32-32.01-1.68-35.42,10.04-4.49,19.15,19.27,23.52,35.82,1.4,5.29,2.32,9.84,2.63,12.5,1.01,8.89,7.77,14.25,12.48,21.14,1.29,1.89,2.41,3.83,3.37,5.81,4.97,10.18,5.77,21.5,3.77,33.14-.99,5.71-.83,11.25.03,16.66,1.1,6.81,3.33,13.42,5.89,19.95,2.66,6.77,5.67,13.47,8.13,20.2,1.63,4.49,3.01,8.99,4.09,13.51h0c.33,1.4.64,2.8.92,4.2.41,2.13.78,4.27,1.07,6.41,2.06,14.88.82,29.78-4.6,44.22Z"/>
          <path class="cls-20" d="m832.87,280.31c-.03,2.76-.1,5.5-.22,9.17-.12,3.22-.22,5.73-.35,8.15-.16,3.04-.37,5.95-.69,9.98-.92,12.06-2.47,24.09-4.43,36.03-.28,1.51-.56,3.02-.85,4.52-1.12,5.87-2.34,11.7-3.69,17.5-3.42,14.92-7.57,29.59-12.42,44.14,0,0,0,.02,0,.02h0c-.44,1.32-.88,2.64-1.33,3.94-.87,2.34-1.77,4.66-2.68,6.98t0,0h0c-4.76,12.22-10,24.13-15.72,35.82-.92,1.89-1.86,3.77-2.81,5.65-.61,1.2-1.21,2.4-1.84,3.58l-.08.03c-1.66.49-3.33,1.01-5.01,1.53-.74.22-1.48.46-2.22.69.74-1.41,1.47-2.83,2.2-4.24.15-.27.28-.54.42-.81.78-1.52,1.53-3.03,2.29-4.56,4.94-9.93,9.51-20.02,13.73-30.3h0s0-.02,0-.02c1.44-3.48,2.83-6.98,4.18-10.53h0c.75-1.96,1.48-3.89,2.21-5.86,4.36-12.54,8.19-25.16,11.45-37.93,2.65-10.26,4.92-20.63,6.88-31.13.65-3.68,1.25-7.36,1.8-11.06,1.23-8.11,2.24-16.26,2.96-24.43.65-7.13.9-10.72,1.23-17.89.22-4.16.34-7.12.4-10.27.06-2.09.09-4.27.12-6.93,0-.25,0-.51,0-.77-.02-6.03-.16-12.05-.42-18.03-.36-8.34-.95-16.63-1.75-24.87-1.51-15.5-3.8-30.84-6.87-46.04-2.4-11.8-5.26-23.51-8.57-35.16-1.83-6.44-3.81-12.85-5.92-19.25,2.45,6.39,4.73,12.81,6.86,19.27,3.86,11.72,7.19,23.53,9.99,35.45,3.67,15.66,6.44,31.5,8.3,47.56.9,7.73,1.59,15.51,2.08,23.36.36,5.87.6,11.76.73,17.7.05,3.59.06,6.31.03,9Z"/>
        </g>
      </g>
      <path class="cls-7" d="m785.74,465.82c-1.66.49-3.33,1.01-5.01,1.53-.74.22-1.48.46-2.22.69-1.85.57-3.71,1.14-5.59,1.73-4.2,1.32-8.47,2.67-12.78,4.05-2.07.66-4.14,1.33-6.24,1.99l-2.38.78c-.79.26-1.59.52-2.4.77-2.17.7-4.36,1.4-6.56,2.09-6.59,2.11-13.25,4.22-19.96,6.31-.08.03-.16.05-.24.09-.03,0-.06.02-.09.03-.48.15-.97.29-1.44.44-.16.05-.33.1-.48.16-.32.09-.64.2-.96.3-.19.05-.38.11-.57.17s-.39.11-.58.17h-.02c-1.8.55-3.62,1.11-5.44,1.65-.09.03-.16.05-.25.08-.97.29-1.94.59-2.9.87-3.9,1.16-7.82,2.32-11.73,3.43h0c-6.82,1.95-13.66,3.82-20.49,5.56-11.72,2.96-23.39,5.56-34.89,7.55-.92.16-1.84.32-2.77.47-2.77.47-5.53.89-8.28,1.28-12.44,1.74-24.62,2.67-36.32,2.52-2.17-.03-4.32-.09-6.45-.2-7.15.35-14.14.28-20.89-.31-13.05-1.15-26.69-2.2-40.88-3.15h0c-4.27-.29-8.58-.58-12.95-.85-2.34-.14-4.69-.29-7.07-.43-1.19-.07-2.36-.14-3.55-.22-.82-.04-1.65-.09-2.47-.13-2.91-.18-5.85-.34-8.81-.52-51.92-2.88-110.12-4.89-173.14-6.76-10.78-.32-21.02-1.19-30.76-2.57h0c-4.26-.12-8.52-.25-12.82-.38-5.95-.18-11.77-.49-17.47-.94-.49-.03-.99-.07-1.48-.11-.09,0-.18,0-.27-.02-.4-.04-.8-.08-1.21-.11-.65-.06-1.31-.11-1.96-.17l-1.94-.18c-3.5-.34-6.94-.74-10.34-1.18-4.13-.54-8.18-1.15-12.15-1.84-1.75-.29-3.48-.6-5.2-.93-4.02-.76-7.95-1.6-11.81-2.52-1.09-.25-2.16-.52-3.24-.78s-2.15-.54-3.21-.83c-1.44-.38-2.86-.77-4.27-1.16h0c-1.41-.41-2.81-.81-4.2-1.23-1.73-.52-3.44-1.05-5.13-1.6-3.39-1.09-6.69-2.27-9.92-3.49-1.62-.61-3.21-1.24-4.79-1.89-6.44-2.63-12.56-5.49-18.37-8.59,1.68-.72,3.39-1.44,5.14-2.14,7.2-2.94,14.94-5.76,23.16-8.45.14-.05.28-.09.42-.14.49-.16.98-.33,1.47-.48,1.03-.34,2.06-.66,3.11-.99.87-.28,1.75-.55,2.64-.83.09-.03.17-.05.26-.08,5.5-1.7,11.19-3.34,17.08-4.94,1.87-.5,3.77-1,5.69-1.5,1.72-.45,3.46-.9,5.22-1.33,2.58-.65,5.2-1.28,7.84-1.9,2.45-.59,4.93-1.15,7.44-1.71,7.47-1.67,15.19-3.27,23.13-4.79,9.47-1.81,19.25-3.5,29.32-5.07,54.28-8.44,116.93-13.26,183.65-13.26,90.74,0,173.95,8.91,238.84,23.74,8.75,2,17.17,4.11,25.23,6.32,4.03,1.1,7.97,2.23,11.81,3.39,2.22.66,4.41,1.34,6.57,2.02,6.02,1.9,11.8,3.86,17.31,5.89,1.85.68,3.67,1.36,5.45,2.05.51.2,1.01.39,1.51.59,1.71.66,3.39,1.34,5.03,2.02Z"/>
      <path class="cls-26" d="m712.57,488.83c-.97.29-1.94.59-2.9.87-3.9,1.16-7.82,2.32-11.73,3.43h0c-6.82,1.95-13.66,3.82-20.49,5.56-11.72,2.96-23.39,5.56-34.89,7.55-.92.16-1.84.32-2.77.47-2.77.47-5.53.89-8.28,1.28-12.44,1.74-24.62,2.67-36.32,2.52-2.17-.03-4.32-.09-6.45-.2-7.15.35-14.14.28-20.89-.31-13.05-1.15-26.69-2.2-40.88-3.15h0c-4.27-.29-8.58-.58-12.95-.85-2.34-.14-4.69-.29-7.07-.43-1.19-.07-2.36-.14-3.55-.22-.82-.04-1.65-.09-2.47-.13-2.91-.18-5.85-.34-8.81-.52-51.92-2.88-110.12-4.89-173.14-6.76-10.78-.32-21.02-1.19-30.76-2.57h0c-4.26-.12-8.52-.25-12.82-.38-5.95-.18-11.77-.49-17.47-.94-.49-.03-.99-.07-1.48-.11-.09,0-.18,0-.27-.02-.4-.04-.8-.08-1.21-.11-.65-.06-1.31-.11-1.96-.17l-1.94-.18c-3.5-.34-6.94-.74-10.34-1.18-4.13-.54-8.18-1.15-12.15-1.84.63-.16,1.26-.3,1.89-.45,2.45-.59,4.93-1.15,7.44-1.71,7.47-1.67,15.19-3.27,23.13-4.79,9.47-1.81,19.25-3.5,29.32-5.07,54.28-8.44,116.93-13.26,183.65-13.26,90.62,0,173.72,8.88,238.57,23.68Z"/>
    </g>
    <g>
      <path class="cls-24" d="m247.04,540.19c.38.91,1.68,1.33,3.63,1.34,9.01.13,31.98-7.94,43.01-12.84,13.42-5.96,53.25-21.51,53.25-21.51v-37.27l-25.18-9.43-4.5-1.69c-3.04-1.13-6.45-.31-8.63,2.09-8.49,9.34-29.66,32.43-37.08,38.84-9.37,8.09-26.63,35.36-24.49,40.47Z"/>
      <path class="cls-26" d="m247.04,540.19c.38.91,1.68,1.33,3.63,1.34,1.6-7.88,13.35-26.49,20.22-32.43,7.88-6.82,24.49-24.28,33.87-35.14,5.77-6.7,12.6-11.09,16.99-13.47l-4.5-1.69c-3.04-1.13-6.45-.31-8.63,2.09-8.49,9.34-29.66,32.43-37.08,38.84-9.37,8.09-26.63,35.36-24.49,40.47Z"/>
      <path class="cls-11" d="m346.92,507.18s81.24.19,138.78-3.19c27.94-1.64,50.3-4.13,55.03-7.89,14.48-11.5,23.86-32.8,6.82-58.78-17.03-25.98-49.83-47.71-49.83-47.71,0,0-29.09,61.34-50.27,61.77-1.08.03-2.29.09-3.64.2-2.66.21-5.82.58-9.36,1.07-2.41.33-4.99.72-7.7,1.16-31.28,5.02-79.83,16.1-79.83,16.1-10.22,18.1,0,37.27,0,37.27Z"/>
      <path class="cls-26" d="m426.75,453.81c8.14,5.72,21.23,13.67,35.18,17.16,23.01,5.76,48.35,4.48,48.35,4.48,0,0-36.42-8.73-56.44-16.42l-19.39-6.37c-2.41.33-4.99.72-7.7,1.16Z"/>
      <path class="cls-12" d="m346.92,507.18s64.82.15,119.68-2.22c6.56-.28,12.96-.61,19.1-.97-23.72-10.8-31.87-44.97-31.87-44.97l-10.03-7.44c-1.21.09-2.53.23-3.93.38-1.69.18-3.5.42-5.43.68-2.41.33-4.99.72-7.7,1.16-31.28,5.02-79.83,16.1-79.83,16.1-10.22,18.1,0,37.27,0,37.27Z"/>
      <path class="cls-24" d="m439.88,451.97c1.74,21.53,17.08,42.06,26.72,53,6.56-.28,12.96-.61,19.1-.97-23.72-10.8-31.87-44.97-31.87-44.97l-10.03-7.44c-1.21.09-2.53.23-3.93.38Z"/>
      <path class="cls-25" d="m425.02,368.32s58.64,15.33,72.7,21.3c14.06,5.96,14.91,26.84,0,40.89-14.91,14.06-43.87,28.52-43.87,28.52,0,0-29.82-5.95-53.25-10.63-23.43-4.69-67.73-25.56-67.73-26.84s23-45.15,26.62-46.86c3.62-1.7,65.53-6.39,65.53-6.39Z"/>
      <path class="cls-16" d="m468.52,419.43l17.18,17.32,63.56-22.26s13.86,2.86,29.8,4.53c5.88.63,12.05,1.08,17.9,1.17,21.72.33,114.92-11.49,114.92-11.49v-27.01s-80.52-12.14-127.16-18.29c-15.71-2.09-27.57-3.48-31.21-3.51-14.48-.13-67.81,15.81-67.81,15.81l-7.58,3.98s-6.39,21.3-6.67,21.86c-.28.57-2.93,17.89-2.93,17.89Z"/>
      <path class="cls-12" d="m573.53,387.17c.26,8.05,3.25,22.17,5.53,31.86,5.25.56,10.72.98,15.99,1.13.64.02,1.28.03,1.91.04,21.72.33,114.92-11.49,114.92-11.49v-27.01s-67.46-10.17-114.65-16.61c-4.37-.6-8.56-1.16-12.51-1.69-4.36,5.01-11.49,14.66-11.19,23.77Z"/>
      <path class="cls-26" d="m549.82,411.48l8.09-20.59s3.27,10.08-8.09,20.59Z"/>
      <path class="cls-24" d="m711.89,381.7v27.01s11.98,12.79,23.67,16.81c3.57,1.23,7.12,1.64,10.28.63,2.44-.78,46.36-65.77,48.35-80.82.48-3.68-.53-5.2-2.68-5.2h0c-6.62,0-23.89,14.51-40.19,24.55-21.58,13.31-39.41,17.03-39.41,17.03Z"/>
      <path class="cls-26" d="m735.55,425.52c3.57,1.23,7.12,1.64,10.28.63,2.44-.78,46.36-65.77,48.35-80.82.48-3.68-.53-5.2-2.68-5.2h0c-4.96,11.23-15.71,34.46-25.14,47.97-8.74,12.5-22.79,28.55-30.8,37.43Z"/>
      <path class="cls-24" d="m573.53,387.17c.26,8.05,3.25,22.17,5.53,31.86,5.25.56,10.72.98,15.99,1.13-1.95-5.26-4.9-14.23-6.4-23.72-1.69-10.76,4.83-24.52,8.58-31.34-4.37-.6-8.56-1.16-12.51-1.69-4.36,5.01-11.49,14.66-11.19,23.77Z"/>
      <path class="cls-24" d="m330.17,423.4l4.75,11.81,3.48,8.63s23.86,17.8,48.27,20.26c24.42,2.46,79.58-11.46,88.95-15.15,9.38-3.7,12.98-5.11,12.98-5.11,0,0-2.09-4.61-4.34-11.67-4.72-14.8-10.16-40.32,1.43-56.48,0,0-52.17,7.1-57.28,7.38-5.11.28-34.08-18.41-34.08-18.41l-59.07,21.54-5.11,37.2Z"/>
      <path class="cls-26" d="m334.93,435.22l3.48,8.63s23.86,17.8,48.27,20.26c24.42,2.46,79.58-11.46,88.95-15.15,9.38-3.7,12.98-5.11,12.98-5.11,0,0-2.09-4.61-4.34-11.67-22.86,7.96-92.2,25.88-109.66,19.4-19.74-7.32-38.76-34.43-38.76-34.43l-.93,18.06Z"/>
      <path class="cls-11" d="m325.84,235.21c1.28,1.17,7.87,7.67,11.29,8.94,3.4,1.28,22.46,4.05,22.46,4.05,0,0,14.59,19.49,16.73,29.6,2.09,9.96,9.25,22.09,9.47,22.46h0s-7.72.66-7.72.66l-12.4,1.05s-14.3,38.96,12.98,40.86c.97.08,1.99.09,3.06.07,31.38-.85,45.51-10.79,48.92-15.47.78-1.06,1.34-2.84,1.63-5.13.95-7.78-1.38-21.45-9.93-32.88-11.08-14.79-38.34-49.2-43.67-52.93-5.32-3.73-1.7-3.19-9.37-10.76-7.67-7.56-20.02-15.12-20.02-15.12,0,0-21.3,14.06-23.22,16.83s-1.49,6.6-.21,7.77Z"/>
      <path class="cls-26" d="m340.32,230.39s.98-.05,2.3-.1l.22-7.22s1.63.77,3.76,1.98l.32-12.15s8.09,4.26,9.51,7.67c.92,2.22-3.56,4.8-6.81,6.32,2.35,1.54,4.72,3.39,6.03,5.24,3.19,4.53,5.89,10.16,5.89,10.16,0,0-3.64-4.02-6.9-7.06-2.99-1.85-7.19-2.12-11.45-.26-4.26,1.86-10.28,3.73-13.2,1.44-2.93-2.29,10.34-6,10.33-6.04Z"/>
      <path class="cls-26" d="m378.07,300.92c13.43,21.86,27.78,24.8,27.78,24.8-6.25-3.27-13.49-13.49-20.05-25.45l-7.72.65Z"/>
      <path class="cls-26" d="m378.64,342.83c.97.08,1.99.09,3.06.07,31.38-.85,45.51-10.79,48.92-15.47.78-1.06,1.34-2.84,1.63-5.13-2,6.58-10.26,10.96-21.86,13.11-12.04,2.24-28.86-1.06-28.86-1.06,0,0-1.33,3.9-2.89,8.48Z"/>
      <path class="cls-12" d="m317.51,296.83s9.39,15.83,9.96,16.83c.33.59,10.56,11.75,18.8,20.7,5.61,6.11,10.31,11.18,10.31,11.18,0,0,27.69,1.63,29.81,0,1.01-.78,1.58-5.08,1.52-10.07-.06-5.48-.87-11.79-2.65-15.13-3.41-6.39-19.31-20.27-19.31-20.27,0,0-13.77,3.65-16.18,3.23-2.42-.43-13.06-.43-14.77-1.09-1.7-.68-14.2-5.01-17.48-5.36Z"/>
      <path class="cls-26" d="m350.7,304.95s6.28,1.86,8.57,5.01,4.79,13.26,5.01,13.95-.32-9.53-1.6-13.58c-1.28-4.05-11.98-5.38-11.98-5.38Z"/>
      <path class="cls-26" d="m346.27,334.35c5.61,6.11,10.31,11.18,10.31,11.18,0,0,27.69,1.63,29.81,0,1.01-.78,1.58-5.08,1.52-10.07-3.76,1.42-8.32,2.94-10.54,2.94-4.15,0-24.66-3.95-24.66-3.95l-6.45-.1Z"/>
      <path class="cls-5" d="m222.11,340.77c1.75,3.01,6.42,8,12.38,13.86,14.84,14.59,37.67,34.55,43.14,42.65,7.67,11.36,60.77,46.57,60.77,46.57,0,0-.57-17.88.57-21.01.33-.88,1.86-4.04,4.16-8.25,5.82-10.61,16.55-27.96,25.08-32.64,11.93-6.53,56.8-13.63,56.8-13.63,0,0-30.11-17.89-40.04-19.59-9.94-1.7-26.41-21.72-31.1-25.84-4.68-4.11-27.83-21.72-33.37-24.84-5.54-3.13-28.25-5.82-28.25-5.82,0,0-17.75-1.71-26.58-1.43-8.83.28-39.73,12.5-41.72,16.19-1.99,3.69-7.95,23.28-1.85,33.79Z"/>
      <path class="cls-26" d="m234.49,354.63c14.84,14.59,37.67,34.55,43.14,42.65,7.67,11.36,60.77,46.57,60.77,46.57,0,0-.57-17.88.57-21.01.33-.88,1.86-4.04,4.16-8.25-11.18-1.45-26.67-3.73-29.86-5.59-5.11-2.99-29.18-14.49-33.38-25.13-4.21-10.65-33.28-41.89-33.28-41.89l-12.11,12.65Z"/>
      <path class="cls-11" d="m251.82,279.61l11.53,18.5c1.81,2.9,4.73,4.93,8.08,5.57,5.42,1.04,13.57,1.86,18.01-1.29,7.04-4.99,7.04-13.31,7.04-13.31l-44.67-9.47Z"/>
      <path class="cls-16" d="m278.54,231.36s9.89,10.08,11.81,13.15c1.92,3.07.96,7.3,4.42,11.04,3.46,3.74,5.09,10.46,4.9,18.53-.19,8.06-2.3,21.69-5.76,23.42-3.46,1.73-15.07,2.11-22.56-.77-7.49-2.88-19.1-14.21-22.94-20.06-3.84-5.86-13.25-28.99-13.25-28.99l6.43-14.59,18.53-3.17,18.43,1.44Z"/>
      <path class="cls-19" d="m280.61,233.5s-4.76,3.23-6.68,3.43-23.13.1-25.34.67c-2.21.58-4.51,6.24-4.7,8.25s3.07,3.84,1.92,7.68c-1.15,3.84-1.92,5.66-1.06,9.89s.78,7.96.78,7.96c0,0-9.71-8.34-13.64-12.66-3.94-4.32-2.59-9.98-2.59-9.98,0,0-1.73-3.07-.96-7.68s10.37-16.13,12.38-18.72,3.46-15.93,3.46-15.93l9.21,4.99-.38-6.05,14.97,11.61-.57-6.34s7.67,8.93,9.88,12.48,3.32,10.4,3.32,10.4Z"/>
      <path class="cls-19" d="m286.7,245.78c.61,0,1.2-.29,1.56-.83.58-.86.35-2.02-.51-2.6-.31-.21-3.14-2.04-6.34-1.98-2.05.05-3.34.66-4.06,1.17-.85.6-1.05,1.77-.46,2.62.6.85,1.77,1.05,2.62.46.2-.14.78-.46,1.99-.49,2.04-.05,4.13,1.33,4.16,1.35.32.21.68.32,1.04.32Z"/>
      <path class="cls-19" d="m257.46,249.04c.49,0,.97-.19,1.34-.56,1.32-1.34,3.06-2.63,3.66-2.71,1.07-.12,3.12.23,4.17.47,1.01.23,2.02-.39,2.26-1.4.24-1.01-.39-2.02-1.4-2.26-.34-.08-3.38-.77-5.43-.55-2.29.25-5.13,2.98-5.94,3.82-.73.74-.71,1.93.03,2.66.37.36.84.54,1.32.54Z"/>
      <path class="cls-19" d="m281.88,251.85c.48,1.67,1.72,2.78,2.76,2.47,1.04-.3,1.5-1.9,1.02-3.57s-1.72-2.78-2.76-2.47c-1.04.3-1.5,1.9-1.02,3.57Z"/>
      <path class="cls-19" d="m264.14,254.3c.48,1.67,1.72,2.78,2.76,2.47,1.04-.3,1.5-1.9,1.02-3.57s-1.72-2.78-2.76-2.47c-1.04.3-1.5,1.9-1.02,3.57Z"/>
      <path class="cls-11" d="m276.54,266.35c3.39,3.12,12.65,1.53,13.37-2.2.65-3.38-3.13-4.15-6.14-4.37-.32-.02-.62-.04-.92-.05-1.2-.05-2.63-.61-3.99-1.39-2.09-1.2-4.01-2.93-4.65-4.13,0,0-1.07,9.02,2.32,12.14Z"/>
      <path class="cls-26" d="m277.06,262.99s1.92-3.31,6.71-3.2h0c-.32-.03-.62-.05-.92-.06-1.2-.05-2.63-.61-3.99-1.39-1.92,1.85-1.82,4.65-1.82,4.65Z"/>
      <path class="cls-14" d="m290.35,272.89s-6.43.77-13.29,1.66c-6.86.9-7.12,4.86-6.93,6.53.19,1.66,20.22-1.54,20.22-1.54,0,0-1.98-2.37,0-6.66Z"/>
      <path class="cls-16" d="m235.22,268.54c3.51,4.14,8.55,5.64,11.26,3.35,2.71-2.3,2.06-7.51-1.45-11.66s-8.55-5.64-11.26-3.35-2.06,7.51,1.45,11.66Z"/>
      <path class="cls-26" d="m235.04,260.54c.08-.5.18-1.03.54-1.56.18-.26.48-.51.85-.65.18-.04.4-.09.57-.08.16.01.34.02.49.05,1.17.26,1.99.84,2.84,1.37.83.56,1.58,1.17,2.33,1.85.3.27.42.7.29,1.1-.18.54-.77.84-1.32.66l-.11-.04c-.33-.11-.77-.22-1.12-.27-.33-.05-.63-.01-.73.02,0,.03-.01.08,0,.09-.01,0,.03.1.06.2.08.12.13.24.26.38.45.55,1.15,1.11,1.86,1.6.72.5,1.5.99,2.26,1.41l.12.07c.22.12.38.35.41.62.06.55.02.98-.12,1.5-.13.49-.46,1.07-1,1.39-.53.32-1.11.37-1.56.3-.47-.05-.89-.18-1.28-.35-.78-.34-1.42-.84-2-1.37-.57-.55-1.08-1.13-1.49-1.78.62.45,1.25.86,1.91,1.21.64.36,1.32.63,1.97.78.63.17,1.36.08,1.54-.13.1-.09.16-.23.19-.47.01-.08.01-.18.01-.28-.74-.34-1.45-.7-2.15-1.12-.84-.53-1.68-1.08-2.43-1.98-.19-.21-.37-.49-.53-.77-.15-.33-.3-.67-.31-1.14-.03-.23.01-.42.05-.62.02-.19.11-.41.22-.62.09-.21.28-.41.45-.58.18-.14.4-.3.59-.37.07-.03.14-.04.21-.06-.6-.51-1.24-.97-1.81-1.22-.35-.11-.39-.17-.66.05-.24.21-.46.61-.62,1.02-.32.84-.53,1.78-.7,2.72-.17-.95-.25-1.93-.11-2.93Z"/>
      <path class="cls-11" d="m40.09,298.88s-26.55,4.12-30.53,5.82c-3.98,1.7-.71,4.69,11.78,3.83,12.49-.85,23.29-2.56,23.29-2.56l-4.54-7.1Z"/>
      <path class="cls-11" d="m51.45,308.69s-14.06,14.38-19.74,12.73c-5.68-1.66,12.92-17.63,12.92-17.63l6.82,4.9Z"/>
      <path class="cls-16" d="m16.59,297.18c6.82,0,16.62.86,18.53,2.14,1.92,1.28,21.09,19.38,21.09,22.79s-10.64,12.78-14.06,16.61c-3.4,3.84-5.54,14.3-.85,13.43,4.69-.86,6.6-10.02,13.21-12.15,6.6-2.13,25.13-5.75,30.88-11.92,0,0,29.6,12.14,46.43,17.03,16.83,4.9,36.42,8.09,47.07,8.31,8.52.17,18.94-1.84,22.77-2.66.96-.2,1.5-.33,1.5-.33,0,0-1.7-16.83-1.92-17.46-.21-.64-15.76-20.66-15.76-20.66l-25.13,1.28s-24.27-5.96-38.76-6.17c-14.48-.22-43.87-4.38-43.87-4.38,0,0-34.29-9.47-37.27-10.53-2.99-1.07-35.36-5.18-39.61-1.74-4.26,3.44,8.94,6.41,15.76,6.41Z"/>
      <path class="cls-26" d="m161.52,314.54s15.87,7.24,21.19,18c0,0,4.37-14.7-21.19-18Z"/>
      <path class="cls-26" d="m85.38,328.07s29.6,12.14,46.43,17.03c16.83,4.9,36.42,8.09,47.07,8.31,8.52.17,18.94-1.84,22.77-2.66l-2.26-5.29s-10.21,3.4-20.51,3.4-49.63-6.82-70.5-14.48c-20.87-7.67-23-6.31-23-6.31Z"/>
      <path class="cls-5" d="m178.88,310.71s12.88,10.33,15.65,19.06c1.19,3.76,1.65,9.1,1.79,13.94.18,6.39-.19,11.94-.19,11.94,0,0,23.32-2.34,27.79-1.7,4.47.63,14.53,4.54,14.53,4.54,0,0,6.37-6.01,8.14-16.51h0c.35-2.06.52-4.28.43-6.66-.53-14.59-17.15-32.28-17.15-32.28-7.87,3.53-25.03,5.87-27.58,6.51-2.55.64-23.42,1.18-23.42,1.18Z"/>
      <path class="cls-26" d="m239.37,350.75l-31.84-18.96s12.57,14.8,28.33,18.96l-20.87-1.17s15.44,4.9,24.39,1.17Z"/>
      <path class="cls-26" d="m244.27,357.53l48.99,6.25s-37.59,4.4-48.99-6.25Z"/>
      <path class="cls-26" d="m250.09,347.59s8.8-9.37,8.38-17.75c0,0,7.1,11.93-8.38,17.75Z"/>
      <path class="cls-26" d="m359.49,345.53s-9.37,10.35-23,12.95c-13.63,2.6-56.16-6.33-56.16-6.33,0,0,61.06,8.93,79.17-6.62Z"/>
      <path class="cls-26" d="m407.2,363.31s-20.34-1.11-32.59,1.36c-12.25,2.47-20.66,7.58-20.66,7.58,0,0,10.22-9.26,25.98-11.71,15.76-2.45,27.26,2.77,27.26,2.77Z"/>
      <path class="cls-26" d="m341.24,391.89s-16.19,11.93-50.12,9.37c0,0,31.82,14.31,50.12-9.37Z"/>
      <path class="cls-26" d="m424.31,383.51l-49.7,8.38s26.55-13.2,49.7-8.38Z"/>
      <path class="cls-26" d="m454.48,387.17s-32.59,24.17-37.06,39.29c0,0,2.77-28.54,37.06-39.29Z"/>
      <path class="cls-26" d="m196.14,355.64s23.32-2.34,27.79-1.7c4.47.63,14.53,4.54,14.53,4.54,0,0,6.37-6.01,8.14-16.51-4.9,5.19-23.92,5.76-36.7,3.55-4.85-.83-9.58-1.42-13.58-1.82.18,6.39-.19,11.94-.19,11.94Z"/>
      <path class="cls-16" d="m321.72,226.19c1.99,2.91,5.04,6.46,6.39,5.89.53-.22,1.21-.43,1.79-.86.92-.65,1.62-1.82,1.18-4.32-.71-4.12-4.4-13.28-4.4-13.28-.1-.03-1.2-.33-2.46-.35-1.37-.04-2.94.23-3.65,1.49-1.35,2.41-.85,8.52,1.13,11.43Z"/>
      <path class="cls-26" d="m324.06,220.12c.87,2.73,4.02,8.12,5.84,11.1.92-.65,1.62-1.82,1.18-4.32-.71-4.12-4.4-13.28-4.4-13.28-.1-.03-1.2-.33-2.46-.35-.47,1.64-.96,4.35-.17,6.85Z"/>
      <path class="cls-16" d="m324.74,216.67c-.18,2.42,6.11,12.35,8.37,13.14,1.08.38,2.57.37,3.79-.11,1.32-.49,2.33-1.53,2.22-3.23-.21-3.27-4.83-14.06-4.83-14.06,0,0-1-.52-2.19-1.06-1.07-.49-2.29-1-3.06-1.18-1.63-.38-4.11,4.09-4.3,6.5Z"/>
      <path class="cls-26" d="m332.16,219.23c.79,3.19,3.24,7.82,4.74,10.47,1.32-.49,2.33-1.53,2.22-3.23-.21-3.27-4.83-14.06-4.83-14.06,0,0-1-.52-2.19-1.06-.34,1.72-.71,4.76.06,7.87Z"/>
      <path class="cls-16" d="m335.99,224.49c.71,2.19,5.75,7.17,7.73,5.61.5-.39.95-.89,1.33-1.43,1.14-1.58,1.69-3.53,1.38-4.11-.43-.78-4.9-13.56-4.9-13.56,0,0-1.04-.39-2.42-.63-1.61-.28-3.69-.36-5.11.63-2.63,1.85,1.28,11.29,1.99,13.5Z"/>
      <path class="cls-26" d="m339.61,219.87c.64,2.85,3.59,7.09,5.44,8.8,1.14-1.58,1.69-3.53,1.38-4.11-.43-.78-4.9-13.56-4.9-13.56,0,0-1.04-.39-2.42-.63-.03,2.2-.03,7.11.51,9.51Z"/>
      <path class="cls-16" d="m349.26,210.61s-2.7-1.67-6.32-1.32c-3.62.35-2.77,5.82-1.7,10.58,1.06,4.76,8.52,9.58,9.87,8.09,1.35-1.49-1.63-7.67-3.05-9.73-1.42-2.06,1.21-7.63,1.21-7.63Z"/>
      <path class="cls-16" d="m330.44,239.42c-5.8-3.58-7.72-5.82-7.58-9.03s13.92-1.86,17.47-3.14c3.55-1.28,6.67,3.19,4.33,5.32-2.34,2.13-11.15,3.85-12.28,4.73-1.14.88-1.93,2.12-1.93,2.12Z"/>
    </g>
    <g>
      <path class="cls-1" d="m494.53,97.08s-8.03,10.78-8.8,12.21c-.77,1.43-3.96,15.4-1.32,15.4s5.06-2.86,7.15-9.13c2.09-6.27,15.84-18.48,15.84-18.48l-5.5-.66-7.37.66Z"/>
      <path class="cls-1" d="m505.42,94.55s-5.83,14.08-5.83,16.61-1.76,10.56,1.43,9.68c3.19-.88,3.85-2.64,5.06-7.92,1.21-5.28,6.6-16.5,6.6-16.5l-7.26-1.87Z"/>
      <path class="cls-15" d="m651.38,42.45l-1.38,33.63-.39,9.34-25.95-4.4s-4.55,2.06-13.79,3.67c-9.25,1.61-59.84,4.69-59.84,4.69,0,0-2.64,3.08-4.99,8.51-2.34,5.42-8.8,15.1-10.7,21.27-.18.58-.31,1.16-.4,1.75-.95,5.72,1.46,11.74-2.53,10.27-4.39-1.61-3.95-10.12-3.95-14.52s-4.7-13.95-4.7-13.95c0,0-18.19-6.29-25.38-3.94-7.19,2.34-12.76,6.89-16.72,12.76-3.96,5.86-7.77,7.48-9.68,6.16-1.9-1.33,8.07-17.02,8.07-17.02l19.76-12.39,42.28-15.99s39.59-21.63,51.47-24.86c11.88-3.22,26.55-1.43,32.85-1.76,6.31-.33,25.96-3.22,25.96-3.22Z"/>
      <path class="cls-26" d="m650.01,76.08l-.39,9.34-25.95-4.4s-4.55,2.06-13.79,3.67c-9.25,1.61-59.84,4.69-59.84,4.69,0,0-2.64,3.08-4.99,8.51-2.34,5.42-8.8,15.1-10.7,21.27-.18.58-.31,1.16-.4,1.75h0s1.88-13.48,6.27-20.2c4.4-6.7,4.99-13.53,9.98-14.7,4.99-1.17,30.5-1.46,50.01-5.45,19.51-3.98,19.8-7.6,26.4-5.55,3.63,1.13,14.36,1.2,23.41,1.08Z"/>
      <path class="cls-13" d="m694.79,109.32s-22.29-10.99-28.6-13.56c-6.31-2.56-20.68-3.45-20.68-3.45,0,0-1.57-3.89-3.23-9.07-2.09-6.57-4.32-15.21-3.66-20.7,1.17-9.81,11.14-25.08,11.14-25.08,0,0,7.48,0,12.61,1.9,5.14,1.9,19.91,3.92,19.91,3.92l10.85,57.28,1.65,8.75Z"/>
      <path class="cls-26" d="m694.79,109.32s-22.29-10.99-28.6-13.56c-6.31-2.56-20.68-3.45-20.68-3.45,0,0-1.57-3.89-3.23-9.07,6.43.52,19.28,1.68,24.37,3.06,4.98,1.35,18.78,9.35,26.49,14.27l1.65,8.75Z"/>
      <path class="cls-26" d="m688.74,103.68c.45.15-29.22-22.66-29.22-22.66,0,0,10.16,16.28,29.22,22.66Z"/>
      <path class="cls-23" d="m700.22,279.89s-8.81,20.02-15.18,28.38c-6.38,8.36-26.62,21.33-32.45,22.21-3.77.57-9.95-1.24-13.45-5.91-1.93-2.57-3.05-6-2.5-10.37,1.54-12.32,14.74-31.02,14.74-31.02l45.56-3.08,3.28-.22Z"/>
      <path class="cls-26" d="m700.22,279.89s-8.81,20.02-15.18,28.38c-6.38,8.36-26.62,21.33-32.45,22.21-3.77.57-9.95-1.24-13.45-5.91,5.01,3.19,10.82,3.98,21.92-2.22,14.96-8.36,23.98-22.66,29.7-34.98,1.83-3.92,4.02-6.11,6.18-7.25l3.28-.22Z"/>
      <path class="cls-1" d="m670.08,218.3s-23.1,32.34-27.72,53.02,5.94,27.06,15.84,28.82,50.38-13.2,62.26-29.7c11.88-16.5-50.38-52.14-50.38-52.14Z"/>
      <path class="cls-26" d="m647.64,271.87s-3.08,13.42-1.87,16.83c1.21,3.41,6.82,8.03,6.82,8.03,0,0-7.92-2.53-8.69-10.78-.77-8.25,3.74-14.08,3.74-14.08Z"/>
      <path class="cls-18" d="m720.46,170.7s-30.8,20.32-43.34,31.98c-12.54,11.66-19.58,27.06-7.04,46.2,12.54,19.14,42.96,24.2,43.59,23.54.63-.66,45.07-83.38,45.07-83.38l-38.28-18.34Z"/>
      <path class="cls-15" d="m774.13,291.78s-41.36,59.39-44.21,60.72c-2.28,1.05-1.63,12.46-6.2,27.76-1.15,3.88-2.64,8-4.59,12.27-9.68,21.12-62.04,77.44-62.04,77.44h-29.48s23.76-61.6,31.24-79.2c2.51-5.9,7.19-15.91,12.31-26.6,10.15-21.21,22.01-45.12,22.01-45.12l15.4-49.94s22-1.1,23.76,0c1.77,1.1,25.08,6.38,26.4,7.26,1.32.88,15.4,15.4,15.4,15.4Z"/>
      <path class="cls-26" d="m701.98,320.37s-3.08,12.1-2.64,17.6c.44,5.5,5.5,18.26,5.5,18.26,0,0-10.56-12.54-9.46-17.93s6.6-17.93,6.6-17.93Z"/>
      <path class="cls-2" d="m723.73,380.26c-1.15,3.88-2.64,8-4.59,12.27-9.68,21.12-62.04,77.44-62.04,77.44h-29.48s23.76-61.6,31.24-79.2c2.51-5.9,7.19-15.91,12.31-26.6,5.64-1.46,14.64-2.85,24.13-.46,10.27,2.58,21.73,11.02,28.43,16.54Z"/>
      <path class="cls-22" d="m659.3,519.25c-.29,11.43-24.64,11.43-43.12,11.43s-34.62-2.05-37.55-7.04c-.9-1.52-.42-3.91,1-6.69,3.25-6.32,11.46-14.63,19.83-19.12,3.29-1.77,6.89-4.66,10.39-7.93,9.26-8.65,17.77-19.94,17.77-19.94h29.48s2.12,32.01,2.22,46.05c0,1.22,0,2.32-.02,3.23Z"/>
      <path class="cls-26" d="m599.46,497.84c3.29-1.77,6.89-4.66,10.39-7.93,25.96-.07,36.43,15.19,37.35,16.62-4.07-5.88-30.83-15.11-47.74-8.69Z"/>
      <path class="cls-26" d="m659.3,519.25c-.29,11.43-24.64,11.43-43.12,11.43s-34.62-2.05-37.55-7.04c-.9-1.52-.42-3.91,1-6.69,8.8,2.65,26.22,7.28,40.65,7.28,12.66,0,28.74-4.7,39.03-8.22,0,1.22,0,2.32-.02,3.23Z"/>
      <path class="cls-17" d="m813.3,236.34c-9.68,20.68-44.14,70.84-44.14,70.84,0,0-3.01-3.83-7.37-8.67-6.39-7.12-15.69-16.43-22.63-19.05-11.66-4.4-35.42-4.18-35.42-4.18l23.2-58.08c-5.63-12.1-4.71-40.03-4.71-40.03,0,0,94.82-5.85,97.9,4.18.03.09.05.17.08.26,2.99,10.18,2.7,34.23-6.9,54.74Z"/>
      <path class="cls-26" d="m722.22,218.08l-34.32-4.18s21.12,9.46,34.32,4.18Z"/>
      <path class="cls-26" d="m715.62,196.3l40.7,23.38s-31.24-4.9-40.7-23.38Z"/>
      <path class="cls-26" d="m811.32,203.69l-25.3,31.77s21.12-13.81,25.3-31.77Z"/>
      <path class="cls-26" d="m729.92,218.3l27.5,20.24s-19.71-1.98-27.5-20.24Z"/>
      <path class="cls-26" d="m813.3,236.34c-9.68,20.68-44.14,70.84-44.14,70.84,0,0-3.01-3.83-7.37-8.67,13.19-16.7,37.94-48.92,43.37-62.17,7.49-18.26,6.16-45.54,6.16-45.54,0,0,4.13-4.3,8.88-9.2,2.99,10.18,2.7,34.23-6.9,54.74Z"/>
      <path class="cls-2" d="m824.74,176.94c0,5.36-4.88,16.95-16.98,20.96-.48.16-.99.31-1.5.45-13.2,3.52-51.91,7.63-61.89,3.82-9.97-3.82-27.28-23.76-26.25-29.33,1.03-5.57,2.35-10.56-1.17-23.32-3.52-12.76-13.93-23.46-22.88-37.83-8.94-14.37-15.68-62.12-15.68-62.12,0,0,49.56-1.1,58.61-.21,9.06.89,45.22,14.66,46.39,15.83,1.17,1.17,15.84,16.42,22,29.92,1.22,2.65,2.7,7.22,4.3,12.89,6.55,23.1,15.06,64.47,15.06,68.95Z"/>
      <path class="cls-23" d="m673.71,27.34s-7.04,10.56-4.29,17.49c2.75,6.93,8.58,11.22,8.58,11.22l4.29-21.12-8.58-7.59Z"/>
      <path class="cls-1" d="m713.67,99.5s3.86,3.67,14.71-1.76,15.69-25.81,8.21-35.93c-7.48-10.12-22.92,37.69-22.92,37.69Z"/>
      <path class="cls-15" d="m675.69,36.36s-2.53,10.67.66,18.04c3.19,7.37,1.1,14.52,4.62,22.33,3.52,7.81,18.48,24.2,25.08,25.74,6.6,1.54,23.1-4.51,27.72-18.7s5.39-36.96,2.2-46.53-27.06-14.85-27.06-14.85l-22.33,2.97-10.89,11Z"/>
      <path class="cls-23" d="m671.29,30.75s2.09,8.25,8.69,10.01c6.6,1.76,14.19-.55,14.19-.55l-6.27-6.82s3.08,3.74,11.22,5.17c8.14,1.43,14.74.44,14.74.44l-5.72-4.51s8.47,5.39,14.19,6.49,7.37,1.1,7.37,1.1l8.2,13.2s6.32-9.35,7.31-15.95c.99-6.6,1.87-22.66-8.36-28.82-10.23-6.16-30.69-8.69-41.8-6.49-11.11,2.2-27.39,8.83-23.76,26.73Z"/>
      <ellipse class="cls-15" cx="740.09" cy="54.24" rx="7.31" ry="10.94"/>
      <path class="cls-26" d="m742.16,58.74c-.37.75-.85,1.48-1.38,1.88-.27.2-.51.27-.68.22-.17-.04-.4-.15-.64-.37-.29-.26-.58-.63-.83-1.03.56-.54,1.09-1.1,1.59-1.72.66-.86,1.32-1.76,1.7-3.03.11-.3.15-.69.19-1.05-.01-.41-.03-.82-.22-1.26-.08-.23-.18-.4-.29-.56-.1-.16-.21-.32-.38-.48-.15-.16-.31-.31-.51-.43-.19-.14-.4-.24-.63-.31-.47-.15-.9-.17-1.3-.12.03-.08.05-.16.08-.23.32-.86.81-1.68,1.32-2.04.13-.1.25-.12.39-.17.08,0,.16,0,.25,0,.08,0,.15.03.23.04.31.08.63.34.87.72.49.77.78,1.78.97,2.8.19-1.02.24-2.1-.12-3.21-.19-.54-.53-1.14-1.16-1.5-.16-.07-.32-.16-.49-.21-.17-.04-.34-.07-.52-.1-.18,0-.37,0-.56.02-.19.02-.35.09-.53.14-.67.26-1.17.72-1.56,1.17-.38.46-.71.94-.97,1.43-.56.99-.93,1.98-1.25,3.07-.1.34-.04.72.18,1.02.38.52,1.11.63,1.64.25l.12-.09c.26-.19.67-.42.98-.52.32-.12.58-.11.61-.07.01,0,.03,0,.04.03.02,0,.04.03.06.06.03.01.05.06.08.12.04.05.07.1.05.12.03.03.01.13.03.22-.03.14-.01.26-.08.44-.19.68-.67,1.49-1.21,2.24-.53.76-1.17,1.52-1.78,2.2l-.11.12c-.3.33-.35.83-.1,1.22.56.88,1.18,1.59,2.1,2.23.46.29,1.07.58,1.78.52.73-.05,1.29-.47,1.64-.87.38-.41.61-.86.78-1.31.18-.45.3-.9.4-1.34.17-.9.26-1.79.21-2.69-.3.84-.62,1.65-1.01,2.41Z"/>
      <path class="cls-23" d="m680.54,52.81c-.6,0-1.19-.25-1.62-.73-.78-.89-.71-2.23.17-3.02.27-.24,2.74-2.36,6.59-2.69,1.65-.14,3.15.02,4.43.48,1.12.4,1.7,1.63,1.3,2.75-.4,1.12-1.63,1.71-2.75,1.3-.48-.17-1.33-.36-2.62-.25-2.44.21-4.08,1.6-4.09,1.62-.41.35-.91.53-1.42.53Z"/>
      <path class="cls-23" d="m707.92,49.89c-.57,0-1.15-.23-1.57-.68-.81-.86-.78-2.21.08-3.03.29-.28,2.98-2.74,6.54-2.74,2.89,0,6.51.38,6.66.4,1.18.13,2.04,1.19,1.92,2.37-.13,1.18-1.18,2.03-2.37,1.92-.04,0-3.55-.37-6.21-.37-1.56,0-3.12,1.13-3.59,1.56-.42.39-.94.58-1.47.58Z"/>
      <path class="cls-23" d="m691.31,57.73c.34,1.98-.53,3.78-1.95,4.02s-2.84-1.16-3.18-3.13c-.34-1.98.53-3.78,1.95-4.02s2.84,1.16,3.18,3.13Z"/>
      <path class="cls-23" d="m714.14,56.23c.34,1.98-.53,3.78-1.95,4.02-1.42.25-2.84-1.16-3.18-3.13s.53-3.78,1.95-4.02,2.84,1.16,3.18,3.13Z"/>
      <path class="cls-1" d="m704.99,73.47c-1.46,4.98-14.16,5.42-13.13,0,.63-3.3,2.52-3.45,4.17-3.59.13-.02.27-.03.4-.04.9-.09,1.69-.26,2.08-1.09.11-.23.21-.49.3-.78.9-2.75,1.2-7.84,1.2-7.84,0,0,6.45,8.36,4.99,13.35Z"/>
      <path class="cls-26" d="m702.27,70.83s-2.64-1.28-5.85-.99c.9-.09,1.69-.26,2.08-1.09.11-.23.21-.49.3-.78,2.85.9,3.47,2.86,3.47,2.86Z"/>
      <path class="cls-14" d="m697.36,82.78s5.02,1.1,8.96.51c3.95-.59,12.45-5.92,12.45-5.92,0,0-1.69,6.87-5.43,9.22s-10.6,3.96-15.99-3.81Z"/>
      <path class="cls-26" d="m824.74,176.94c0,5.36-4.88,16.95-16.98,20.96,2.01-11.96,4.95-31.14,4.95-40.62,0-14.37-18.41-43.7-18.41-43.7l15.38-5.59c6.55,23.1,15.06,64.47,15.06,68.95Z"/>
      <path class="cls-26" d="m790.56,120.47l-25.23-8.21s8.07,11.44,22.88,8.95l-14.08,5.14s8.65,4.24,16.43-5.87Z"/>
      <path class="cls-15" d="m878.63,130.08c-2.42,7.92-17.16,17.16-28.6,20.24-11.44,3.08-28.64,7.4-28.64,7.4,0,0-8.39,8.66-14.41,8.87-6.01.22-11.29-.77-11.29-.77l.03.09c.15.44.63,2.21-.81,3.76-1.65,1.76-8.03.88-9.68,0-1.65-.89-2.86-4.29-2.86-4.29,0,0-1.48-.18-2.97-.61-1.14-.34-2.27-.82-2.75-1.48-1.1-1.54-1.65-3.74-1.65-3.74,0,0-1.55-.29-3.07-.93-1.13-.47-2.23-1.15-2.65-2.04-.93-1.96-.59-3.93-.56-4.16,0,0,0-.02,0-.02,0,0-1.22-.7-2.39-1.77-.9-.82-1.77-1.86-2.02-2.96-.55-2.52,7.38-13.74,9.68-16.5,2.31-2.75,36.08,7.7,36.08,7.7l15.4-13.64-3.15-1.02-6.42-2.06,3.96-14.85,13.86-17.71s22,8.14,33.66,14.74c5.65,3.2,9.03,7.48,10.73,11.94,1.82,4.76,1.74,9.71.49,13.79Z"/>
      <path class="cls-26" d="m855.21,107.53c-9.46,1.76-18.48,7.69-29.7,17.71l-3.15-1.02c2.4-3.46,6.99-9.12,13.28-12.74,9.56-5.5,19.58-3.95,19.58-3.95Z"/>
      <g class="cls-26">
        <path d="m768.75,152.41s-1.22-.7-2.39-1.77c3.33-6.11,9.83-9.19,9.83-9.19-4.55,3.74-7.44,10.96-7.44,10.96Z"/>
        <path d="m780.72,148.8c-2.77,3.02-5.48,10.11-5.7,10.76,0,0-1.55-.29-3.07-.93,2.91-4.78,8.38-9.5,8.76-9.83Z"/>
        <path d="m782.39,165.39s-1.48-.18-2.97-.61c1.42-4.33,5.42-9.19,5.64-9.46-.16.46-2.84,7.9-2.67,10.07Z"/>
      </g>
      <path class="cls-26" d="m878.63,130.08c-2.42,7.92-17.16,17.16-28.6,20.24-11.44,3.08-28.64,7.4-28.64,7.4,0,0-8.39,8.66-14.41,8.87-6.01.22-11.29-.77-11.29-.77,0,0-1.18.18-2.13.4-.96.22-1.32,1.32-1.32,1.32,0,0-.96-1.46,0-3.52.95-2.05,9.01.37,14.15-.8,5.14-1.18,14.74-6.72,14.74-6.72,0,0,30.87-8.72,41.87-15.76,11-7.04,16.84-14.83,15.13-24.46,1.82,4.76,1.74,9.71.49,13.79Z"/>
      <path class="cls-26" d="m711.57,131.33s10.78,12.76,26.33,16.13c0,0-14.68,7.19-26.33-16.13Z"/>
      <path class="cls-26" d="m722.22,160.35s8.93,13.5,15.68,15.41c6.76,1.91,31.25,6.6,31.25,6.6,0,0-25.67,3.37-33.88-2.64-8.21-6.01-13.05-19.37-13.05-19.37Z"/>
      <path class="cls-26" d="m817.84,169.16l-33.88,24.35s28.6-7.33,33.88-24.35Z"/>
      <path class="cls-26" d="m659.96,41.7s-2.49,7.5-2.49,12.12,8.14,18.48,8.14,18.48c0,0-7.7-18.59-5.65-30.6Z"/>
      <path class="cls-26" d="m624.76,77.94s3.96-7.47,1.65-15.39c0,0,7.7,6.81-1.65,15.39Z"/>
      <path class="cls-6" d="m783.38,65.18s24.93,11.48,25.81,12.19c.88.71,30.51,11.16,30.51,11.16,0,0-10.41,12.14-14.96,18.16-4.55,6.01-5.57,19.66-5.57,19.66,0,0-19.95-4.85-25.81-7.05-5.87-2.2-20.09-9.97-21.12-22.73-1.03-12.76,11.15-31.39,11.15-31.39Z"/>
      <path class="cls-26" d="m781.62,91.58c-.53.02,18.33-6.45,25.37-12.32,0,0-2.49,11.29-25.37,12.32Z"/>
      <g>
        <path class="cls-14" d="m627.62,384.37c0,3.34-.43,6.57-1.22,9.66-.9,3.47-2.27,6.75-4.05,9.76-3.32,5.64-8.03,10.36-13.67,13.67-3.01,1.78-6.29,3.15-9.75,4.05-3.08.8-6.32,1.22-9.66,1.22s-6.58-.43-9.66-1.22c-3.47-.9-6.74-2.27-9.75-4.05-5.64-3.31-10.35-8.03-13.67-13.67h0c-1.77-3.02-3.14-6.29-4.05-9.76-.8-3.09-1.22-6.32-1.22-9.66s.43-6.58,1.22-9.66c.9-3.47,2.27-6.74,4.05-9.75,3.31-5.64,8.03-10.36,13.67-13.67,3.01-1.77,6.29-3.15,9.75-4.05,3.09-.8,6.32-1.23,9.66-1.23s6.58.43,9.66,1.23c3.47.9,6.75,2.27,9.76,4.05,5.64,3.32,10.36,8.03,13.67,13.67,1.78,3.01,3.15,6.29,4.05,9.75.8,3.09,1.22,6.32,1.22,9.66Z"/>
        <g>
          <path class="cls-21" d="m600.79,352.59l-11.53,4.19-11.53-4.19,1.87-5.35c3.09-.8,6.32-1.23,9.66-1.23s6.58.43,9.66,1.23l1.87,5.35Z"/>
          <path class="cls-21" d="m622.35,364.95l-2.46,5.1-11.11-5.19-5.19-11.11,5.1-2.46c5.64,3.32,10.36,8.03,13.67,13.67Z"/>
          <path class="cls-21" d="m627.62,384.37c0,3.34-.43,6.57-1.22,9.66l-5.36,1.87-4.19-11.53,4.19-11.53,5.36,1.87c.8,3.09,1.22,6.32,1.22,9.66Z"/>
          <path class="cls-21" d="m622.35,403.79c-3.32,5.64-8.03,10.36-13.67,13.67l-5.1-2.46,5.19-11.11,11.11-5.19,2.46,5.1Z"/>
          <path class="cls-21" d="m600.79,416.15l-1.87,5.36c-3.08.8-6.32,1.22-9.66,1.22s-6.58-.43-9.66-1.22l-1.87-5.36,11.53-4.19,11.53,4.19Z"/>
          <path class="cls-21" d="m574.94,414.99l-5.1,2.46c-5.64-3.31-10.35-8.03-13.67-13.67h0s2.46-5.1,2.46-5.1l11.11,5.19,5.19,11.11Z"/>
          <path class="cls-21" d="m561.66,384.37l-4.19,11.53-5.35-1.87c-.8-3.09-1.22-6.32-1.22-9.66s.43-6.58,1.22-9.66l5.35-1.87,4.19,11.53Z"/>
          <path class="cls-21" d="m574.94,353.74l-5.19,11.11-11.11,5.19-2.46-5.1c3.31-5.64,8.03-10.36,13.67-13.67l5.1,2.46Z"/>
        </g>
        <g>
          <polygon class="cls-21" points="579.51 383.03 589.27 383.03 599.02 383.03 602.89 371.94 589.27 367 575.64 371.94 579.51 383.03"/>
          <polygon class="cls-21" points="592.43 376.53 592.43 386.28 592.43 396.04 603.52 399.91 608.46 386.28 603.52 372.66 592.43 376.53"/>
          <polygon class="cls-21" points="598.93 389.44 589.18 389.44 579.42 389.44 575.55 400.53 589.18 405.48 602.8 400.53 598.93 389.44"/>
          <polygon class="cls-21" points="586.02 395.95 586.02 386.19 586.02 376.44 574.93 372.57 569.98 386.19 574.93 399.82 586.02 395.95"/>
          <circle class="cls-21" cx="588.58" cy="386.14" r="7.95"/>
        </g>
      </g>
    </g>
  </g>
</svg>